<?xml version="1.0" encoding="UTF-8"?><svg id="Layer_1" xmlns="http://www.w3.org/2000/svg" width="10.84" height="10.84" viewBox="0 0 10.84 10.84"><defs><style>.cls-1{fill:#284484;}</style></defs><path class="cls-1" d="M10.84,1.63v7.58c0,.9-.73,1.63-1.63,1.63h-2.07s.1-.05.1-.1v-3.59s.05-.1.1-.1h1.16c.11,0,.21-.08.22-.2l.17-1.34c0-.06-.04-.11-.1-.11h-1.47v-1.26c0-.29.24-.52.53-.52h.82c.08,0,.15-.06.15-.14l.04-1.26c0-.1-.08-.17-.17-.17h-1.24c-1.01,0-1.83.82-1.83,1.83v1.53h-1.26c-.08,0-.13.06-.13.13v1.31c0,.07.05.13.13.13h1.26v3.76c0,.05.04.1.1.1H1.63c-.9,0-1.63-.73-1.63-1.63V1.63C0,.73.73,0,1.63,0h7.58c.9,0,1.63.73,1.63,1.63Z"/></svg>